<svg xmlns="http://www.w3.org/2000/svg" viewBox="0 0 465 160" role="img" aria-labelledby="title">
  <title>miolo</title>
  <g transform="translate(-25 -165)" fill="#1d1d1b">
    <g>
      <path d="M155.39,233.74v53.77h-20.29v-53.77c.23-5.34-2.5-10.35-7.09-13.09s-10.3-2.74-14.9,0c-4.58,2.74-7.3,7.75-7.09,13.09v53.77h-20.29v-53.77c.23-5.34-2.5-10.35-7.09-13.09s-10.3-2.74-14.9,0-7.3,7.75-7.09,13.09v53.77h-20.29v-53.77c.05-19.22,15.61-34.77,34.83-34.83,9.28,0,18.16,3.71,24.68,10.32,6.52-6.59,15.4-10.32,24.68-10.32,19.22.05,34.77,15.61,34.83,34.83h.03Z"/>
      <path d="M174.45,181.34c0-4.56,2.74-8.67,6.95-10.42s9.05-.78,12.28,2.45,4.2,8.06,2.45,12.28c-1.75,4.21-5.86,6.95-10.41,6.95-6.23,0-11.27-5.05-11.27-11.27v.02ZM175.58,287.5v-88.59h20.29v88.59h-20.29Z"/>
      <path d="M301.72,243.21c0,17.92-10.79,34.06-27.33,40.93-16.55,6.87-35.61,3.07-48.27-9.61-12.66-12.66-16.46-31.72-9.61-48.27s23.02-27.35,40.93-27.35c24.44.07,44.23,19.86,44.3,44.3h-.02ZM257.43,267.19c13.23-.03,23.97-10.75,24-24,0-13.25-10.75-24-24-24s-24,10.75-24,24,10.75,24,24,24h0Z"/>
      <path d="M353.63,267.19v20.29h-10.15c-14-.03-25.32-11.38-25.36-25.36v-90.79h20.29v90.79c0,2.79,2.27,5.06,5.06,5.08h10.15v-.02Z"/>
      <path d="M452.56,243.21c0,17.92-10.79,34.06-27.35,40.93-16.55,6.85-35.61,3.07-48.27-9.61-12.66-12.66-16.46-31.72-9.61-48.27,6.85-16.55,23.02-27.35,40.93-27.35,24.44.07,44.23,19.86,44.3,44.3h0ZM408.27,267.19c13.23-.03,23.97-10.75,24-24,0-13.25-10.75-24-24-24s-24,10.75-24,24,10.75,24,24,24h0Z"/>
      <path d="M483.75,277.49c0,6.23-5.05,11.27-11.27,11.27s-11.27-5.05-11.27-11.27,5.05-11.27,11.27-11.27,11.27,5.05,11.27,11.27Z"/>
    </g>
    <path d="M57.78,305c0,6.23-5.05,11.27-11.27,11.27s-11.27-5.05-11.27-11.27,5.05-11.27,11.27-11.27,11.27,5.05,11.27,11.27Z"/>
    <path d="M107.16,305c0,6.23-5.05,11.27-11.27,11.27s-11.27-5.05-11.27-11.27,5.05-11.27,11.27-11.27,11.27,5.05,11.27,11.27Z"/>
    <path d="M156.52,305c0,6.23-5.05,11.27-11.27,11.27s-11.27-5.05-11.27-11.27,5.05-11.27,11.27-11.27,11.27,5.05,11.27,11.27Z"/>
  </g>
</svg>
