<svg xmlns="http://www.w3.org/2000/svg" viewBox="25 165 140 160" role="img" aria-labelledby="title">
  <title id="title">miolo favicon</title>
  <g fill="#1d1d1b">
    <path d="M155.39,233.74v53.77h-20.29v-53.77c.23-5.34-2.5-10.35-7.09-13.09s-10.3-2.74-14.9,0c-4.58,2.74-7.3,7.75-7.09,13.09v53.77h-20.29v-53.77c.23-5.34-2.5-10.35-7.09-13.09s-10.3-2.74-14.9,0-7.3,7.75-7.09,13.09v53.77h-20.29v-53.77c.05-19.22,15.61-34.77,34.83-34.83,9.28,0,18.16,3.71,24.68,10.32,6.52-6.59,15.4-10.32,24.68-10.32,19.22.05,34.77,15.61,34.83,34.83h.03Z"/>
    <path d="M57.78,305c0,6.23-5.05,11.27-11.27,11.27s-11.27-5.05-11.27-11.27,5.05-11.27,11.27-11.27,11.27,5.05,11.27,11.27Z"/>
    <path d="M107.16,305c0,6.23-5.05,11.27-11.27,11.27s-11.27-5.05-11.27-11.27,5.05-11.27,11.27-11.27,11.27,5.05,11.27,11.27Z"/>
    <path d="M156.52,305c0,6.23-5.05,11.27-11.27,11.27s-11.27-5.05-11.27-11.27,5.05-11.27,11.27-11.27,11.27,5.05,11.27,11.27Z"/>
  </g>
</svg>
